<mxfile host="65bd71144e">
    <diagram id="zpzwySCB0IlTeNo3ZknX" name="Page-1">
        <mxGraphModel dx="594" dy="423" grid="1" gridSize="10" guides="1" tooltips="1" connect="1" arrows="1" fold="1" page="1" pageScale="1" pageWidth="850" pageHeight="1100" math="0" shadow="0">
            <root>
                <mxCell id="0"/>
                <mxCell id="1" parent="0"/>
                <mxCell id="4" value="" style="rounded=0;whiteSpace=wrap;html=1;fillColor=#6d8764;fontColor=#ffffff;strokeColor=#3A5431;" vertex="1" parent="1">
                    <mxGeometry x="150" y="370" width="660" height="440" as="geometry"/>
                </mxCell>
                <mxCell id="6" value="HIT" style="ellipse;whiteSpace=wrap;html=1;fillColor=#1ba1e2;fontColor=#ffffff;strokeColor=#006EAF;" vertex="1" parent="1">
                    <mxGeometry x="660" y="760" width="50" height="40" as="geometry"/>
                </mxCell>
                <mxCell id="7" value="STAND" style="ellipse;whiteSpace=wrap;html=1;fillColor=#1ba1e2;fontColor=#ffffff;strokeColor=#006EAF;" vertex="1" parent="1">
                    <mxGeometry x="720" y="760" width="50" height="40" as="geometry"/>
                </mxCell>
                <mxCell id="8" value="SPLIT" style="ellipse;whiteSpace=wrap;html=1;fillColor=#bac8d3;strokeColor=#23445d;" vertex="1" parent="1">
                    <mxGeometry x="600" y="760" width="50" height="40" as="geometry"/>
                </mxCell>
                <mxCell id="10" value="" style="rounded=1;whiteSpace=wrap;html=1;fontColor=#0A0A0A;" vertex="1" parent="1">
                    <mxGeometry x="450" y="410" width="50" height="70" as="geometry"/>
                </mxCell>
                <mxCell id="11" value="&lt;font style=&quot;font-size: 15px;&quot;&gt;4&lt;br&gt;spade&lt;/font&gt;" style="rounded=1;whiteSpace=wrap;html=1;fillColor=#f5f5f5;strokeColor=#666666;fontColor=#333333;" vertex="1" parent="1">
                    <mxGeometry x="510" y="410" width="50" height="70" as="geometry"/>
                </mxCell>
                <mxCell id="12" value="&lt;span style=&quot;font-size: 15px;&quot;&gt;4&lt;/span&gt;&lt;br style=&quot;font-size: 15px;&quot;&gt;&lt;span style=&quot;font-size: 15px;&quot;&gt;heart&lt;/span&gt;" style="rounded=1;whiteSpace=wrap;html=1;fontColor=#333333;fillColor=#f5f5f5;strokeColor=#666666;" vertex="1" parent="1">
                    <mxGeometry x="510" y="670" width="50" height="70" as="geometry"/>
                </mxCell>
                <mxCell id="13" value="&lt;span style=&quot;font-size: 15px;&quot;&gt;7&lt;br&gt;&lt;/span&gt;diamond" style="rounded=1;whiteSpace=wrap;html=1;fontColor=#333333;fillColor=#f5f5f5;strokeColor=#666666;" vertex="1" parent="1">
                    <mxGeometry x="450" y="670" width="50" height="70" as="geometry"/>
                </mxCell>
                <mxCell id="14" value="&lt;font style=&quot;font-size: 12px;&quot; color=&quot;#f5f5f5&quot;&gt;MENU&lt;/font&gt;" style="ellipse;whiteSpace=wrap;html=1;fontSize=15;fontColor=#0A0A0A;fillColor=#211c27;" vertex="1" parent="1">
                    <mxGeometry x="740" y="380" width="60" height="30" as="geometry"/>
                </mxCell>
                <mxCell id="16" value="quit" style="rounded=0;whiteSpace=wrap;html=1;fontSize=12;fontColor=#F5F5F5;fillColor=#211c27;" vertex="1" parent="1">
                    <mxGeometry x="730" y="420" width="60" height="20" as="geometry"/>
                </mxCell>
                <mxCell id="17" value="restart" style="rounded=0;whiteSpace=wrap;html=1;fontSize=12;fontColor=#F5F5F5;fillColor=#211c27;" vertex="1" parent="1">
                    <mxGeometry x="730" y="450" width="60" height="20" as="geometry"/>
                </mxCell>
                <mxCell id="18" value="" style="shape=or;whiteSpace=wrap;html=1;fontSize=12;fillColor=#dae8fc;rotation=-90;strokeColor=#6c8ebf;" vertex="1" parent="1">
                    <mxGeometry x="360" y="420" width="60" height="100" as="geometry"/>
                </mxCell>
                <mxCell id="19" value="" style="ellipse;whiteSpace=wrap;html=1;aspect=fixed;fontSize=12;fillColor=#dae8fc;strokeColor=#6c8ebf;" vertex="1" parent="1">
                    <mxGeometry x="360" y="390" width="60" height="60" as="geometry"/>
                </mxCell>
                <mxCell id="20" value="" style="shape=or;whiteSpace=wrap;html=1;fontSize=12;fillColor=#fff2cc;rotation=-90;strokeColor=#d6b656;" vertex="1" parent="1">
                    <mxGeometry x="360" y="670" width="60" height="100" as="geometry"/>
                </mxCell>
                <mxCell id="21" value="" style="ellipse;whiteSpace=wrap;html=1;aspect=fixed;fontSize=12;fillColor=#fff2cc;strokeColor=#d6b656;" vertex="1" parent="1">
                    <mxGeometry x="360" y="640" width="60" height="60" as="geometry"/>
                </mxCell>
                <mxCell id="22" value="YOU" style="text;html=1;strokeColor=none;fillColor=none;align=center;verticalAlign=middle;whiteSpace=wrap;rounded=0;fontSize=12;fontColor=#0A0A0A;" vertex="1" parent="1">
                    <mxGeometry x="360" y="710" width="60" height="30" as="geometry"/>
                </mxCell>
                <mxCell id="23" value="DEALER" style="text;html=1;strokeColor=none;fillColor=none;align=center;verticalAlign=middle;whiteSpace=wrap;rounded=0;fontSize=12;fontColor=#0A0A0A;" vertex="1" parent="1">
                    <mxGeometry x="360" y="460" width="60" height="30" as="geometry"/>
                </mxCell>
                <mxCell id="24" value="" style="ellipse;whiteSpace=wrap;html=1;fontSize=12;fillColor=#f8cecc;strokeColor=#b85450;" vertex="1" parent="1">
                    <mxGeometry x="460" y="570" width="40" height="10" as="geometry"/>
                </mxCell>
                <mxCell id="25" value="" style="ellipse;whiteSpace=wrap;html=1;fontSize=12;fillColor=#f8cecc;strokeColor=#b85450;" vertex="1" parent="1">
                    <mxGeometry x="410" y="600" width="40" height="10" as="geometry"/>
                </mxCell>
                <mxCell id="26" value="" style="ellipse;whiteSpace=wrap;html=1;fontSize=12;fillColor=#f8cecc;strokeColor=#b85450;" vertex="1" parent="1">
                    <mxGeometry x="410" y="590" width="40" height="10" as="geometry"/>
                </mxCell>
                <mxCell id="27" value="" style="ellipse;whiteSpace=wrap;html=1;fontSize=12;fillColor=#f8cecc;strokeColor=#b85450;rotation=-20;" vertex="1" parent="1">
                    <mxGeometry x="385" y="585" width="40" height="10" as="geometry"/>
                </mxCell>
                <mxCell id="28" value="" style="ellipse;whiteSpace=wrap;html=1;fontSize=12;fillColor=#f8cecc;strokeColor=#b85450;" vertex="1" parent="1">
                    <mxGeometry x="500" y="600" width="40" height="10" as="geometry"/>
                </mxCell>
                <mxCell id="29" value="" style="ellipse;whiteSpace=wrap;html=1;fontSize=12;fillColor=#f8cecc;strokeColor=#b85450;" vertex="1" parent="1">
                    <mxGeometry x="500" y="590" width="40" height="10" as="geometry"/>
                </mxCell>
                <mxCell id="30" value="" style="ellipse;whiteSpace=wrap;html=1;fontSize=12;fillColor=#f8cecc;strokeColor=#b85450;" vertex="1" parent="1">
                    <mxGeometry x="550" y="600" width="40" height="10" as="geometry"/>
                </mxCell>
                <mxCell id="31" value="" style="ellipse;whiteSpace=wrap;html=1;fontSize=12;fillColor=#f8cecc;strokeColor=#b85450;rotation=15;" vertex="1" parent="1">
                    <mxGeometry x="470" y="570" width="40" height="10" as="geometry"/>
                </mxCell>
                <mxCell id="32" value="" style="ellipse;whiteSpace=wrap;html=1;fontSize=12;fillColor=#f8cecc;strokeColor=#b85450;" vertex="1" parent="1">
                    <mxGeometry x="460" y="580" width="40" height="10" as="geometry"/>
                </mxCell>
                <mxCell id="33" value="" style="ellipse;whiteSpace=wrap;html=1;fontSize=12;fillColor=#f8cecc;strokeColor=#b85450;" vertex="1" parent="1">
                    <mxGeometry x="460" y="590" width="40" height="10" as="geometry"/>
                </mxCell>
                <mxCell id="34" value="" style="ellipse;whiteSpace=wrap;html=1;fontSize=12;fillColor=#f8cecc;strokeColor=#b85450;" vertex="1" parent="1">
                    <mxGeometry x="460" y="600" width="40" height="10" as="geometry"/>
                </mxCell>
                <mxCell id="37" value="&lt;font color=&quot;#33e60f&quot;&gt;100$&lt;/font&gt;" style="text;html=1;strokeColor=none;fillColor=none;align=center;verticalAlign=middle;whiteSpace=wrap;rounded=0;fontSize=12;fontColor=#0A0A0A;" vertex="1" parent="1">
                    <mxGeometry x="445" y="535" width="60" height="30" as="geometry"/>
                </mxCell>
            </root>
        </mxGraphModel>
    </diagram>
</mxfile>